<?xml version="1.0" encoding="utf-8"?>
<!-- Generator: Adobe Illustrator 26.3.1, SVG Export Plug-In . SVG Version: 6.00 Build 0)  -->
<svg version="1.1" id="Layer_1" xmlns="http://www.w3.org/2000/svg" xmlns:xlink="http://www.w3.org/1999/xlink" x="0px" y="0px"
	 viewBox="0 0 74 74" style="enable-background:new 0 0 74 74;" xml:space="preserve">
<style type="text/css">
	.st0{display:none;fill:none;stroke:#000000;stroke-miterlimit:10;}
	.st1{fill:#FFFFFF;}
</style>
<rect x="12.39" y="12.47" class="st0" width="49.07" height="49.07"/>
<g>
	<path d="M62.05,62.05c-16.7,0-33.4,0-50.1,0c0-16.69,0-33.39,0-50.1c16.69,0,33.4,0,50.1,0C62.05,28.64,62.05,45.34,62.05,62.05z
		 M27.28,61.19c0-16.14,0-32.24,0-48.37c-2.26,0-4.5,0-6.79,0c0,0.21,0,0.39,0,0.56c0,1.06,0,2.12,0,3.18c0,0.3-0.04,0.59-0.43,0.57
		c-0.35-0.01-0.4-0.28-0.39-0.56c0-0.8,0-1.6,0-2.4c0-0.45,0-0.9,0-1.35c-2.32,0-4.58,0-6.84,0c0,16.14,0,32.25,0,48.36
		c2.3,0,4.55,0,6.84,0c0-0.22,0-0.39,0-0.57c0-2.2,0-4.4,0-6.61c0-0.3,0.03-0.6,0.39-0.61c0.41-0.02,0.44,0.31,0.44,0.62
		c0,0.11,0,0.23,0,0.34c0,2.09,0,4.18,0,6.26c0,0.19,0,0.37,0,0.58C22.8,61.19,25.03,61.19,27.28,61.19z M52.99,61.18
		c0-0.26,0-0.45,0-0.64c0-2.3,0-4.6,0-6.9c0-2.01,0.2-4,0.69-5.96c1.18-4.69,1.32-9.4,0.47-14.16c-0.48-2.68-1.12-5.33-1.12-8.08
		c0-1.52-0.02-3.03,0.01-4.55c0-0.18,0.22-0.47,0.38-0.5c0.32-0.06,0.43,0.21,0.43,0.51c0,1.09,0.01,2.19,0,3.28
		c-0.03,2.15,0.22,4.26,0.61,6.37c0.33,1.79,0.66,3.59,0.88,5.4c0.42,3.48,0.29,6.95-0.5,10.36c-0.69,2.97-1.1,5.96-1,9.01
		c0.06,1.78,0.01,3.56,0.01,5.34c0,0.17,0,0.35,0,0.53c1.2,0,2.35,0,3.52,0c0-0.22,0-0.4,0-0.57c0-3.26,0-6.53,0-9.79
		c0-0.32-0.12-0.78,0.39-0.79c0.55-0.01,0.44,0.47,0.44,0.8c0.01,3.26,0,6.53,0,9.79c0,0.19,0,0.38,0,0.56c1.05,0,2.01,0,2.98,0
		c0-16.14,0-32.24,0-48.36c-2.45,0-4.87,0-7.35,0c0,0.18,0,0.34,0,0.49c0,1.06,0,2.12,0,3.18c0,0.3,0,0.63-0.41,0.64
		c-0.42,0.01-0.43-0.32-0.43-0.63c0-1.06,0-2.12,0-3.18c0-0.17-0.02-0.34-0.02-0.51c-2.11,0-4.16,0-6.22,0c0,16.14,0,32.25,0,48.37
		C48.82,61.18,50.87,61.18,52.99,61.18z M35.5,12.8c-0.15,0.97-0.18,1.91-0.46,2.76c-0.53,1.6-1.17,3.17-1.84,4.73
		c-1.24,2.89-1.42,5.8-0.33,8.76c0.51,1.39,1.05,2.77,1.6,4.15c0.66,1.64,0.97,3.34,0.97,5.11c-0.01,4.08-0.03,8.16,0.01,12.24
		c0.01,1.47-0.31,2.79-1.11,4.02c-0.77,1.18-0.88,2.48-0.36,3.79c0.35,0.88,0.76,1.73,1.18,2.57c0.07,0.14,0.31,0.27,0.48,0.27
		c0.9,0.03,1.79-0.01,2.69,0.02c0.36,0.01,0.47-0.13,0.54-0.46c0.19-0.96,0.39-1.92,0.62-2.87c0.22-0.91,0.16-1.78-0.28-2.61
		c-0.4-0.75-0.54-1.56-0.54-2.4c0.01-5.92,0.01-11.85,0-17.77c0-0.68-0.06-1.37-0.17-2.04c-0.34-1.99-0.47-3.98-0.04-5.98
		c0.29-1.32,0.31-2.65,0.02-3.98c-0.19-0.85-0.45-1.67-1.07-2.32c-0.6-0.63-1.27-0.62-1.86,0.01c-0.12,0.13-0.25,0.27-0.33,0.42
		c-1.3,2.54-1.31,5.09,0,7.63c0.23,0.45,0.6,0.81,1.16,0.9c0.29,0.05,0.58,0.16,0.5,0.52c-0.08,0.38-0.41,0.37-0.71,0.31
		c-0.66-0.13-1.14-0.55-1.51-1.08c-0.97-1.37-1.22-2.94-1.21-4.55c0.01-1.53,0.27-3.02,1.16-4.33c1.04-1.53,2.68-1.55,3.71-0.01
		c1.23,1.84,1.38,3.92,1.07,6.02c-0.28,1.87-0.43,3.71-0.15,5.59c0.21,1.38,0.29,2.79,0.3,4.18c0.03,5.51,0,11.03,0.03,16.54
		c0,0.57,0.09,1.19,0.34,1.7c0.58,1.19,0.69,2.38,0.37,3.65c-0.24,0.94-0.41,1.89-0.62,2.88c0.56,0,1.04,0,1.53,0
		c0.85,0,0.84,0,1.08-0.83c0.96-3.28,1.13-6.58,0.2-9.89c-0.62-2.2-0.85-4.44-0.84-6.72c0.02-5.2,0.01-10.41,0.01-15.61
		c0-0.15,0-0.29,0-0.44c0.01-0.29,0.11-0.57,0.44-0.5c0.17,0.04,0.3,0.31,0.4,0.5c0.05,0.1,0.01,0.26,0.01,0.39
		c0,5.51,0.01,11.03,0,16.54c0,1.72,0.19,3.42,0.66,5.07c0.82,2.89,1.01,5.81,0.43,8.76c-0.18,0.9-0.43,1.79-0.65,2.72
		c0.99,0,1.94,0,2.93,0c0-16.14,0-32.25,0-48.37c-2.3,0-4.57,0-6.88,0c0,1.52,0,3,0,4.49c0,0.15,0.04,0.32-0.02,0.43
		c-0.08,0.15-0.25,0.34-0.39,0.34c-0.13,0-0.3-0.19-0.39-0.33c-0.07-0.11-0.03-0.29-0.03-0.43c0-1.21,0-2.41,0-3.62
		c0-0.29,0-0.58,0-0.88C37.19,12.8,36.33,12.8,35.5,12.8z M28.19,12.8c0,16.16,0,32.25,0,48.35c0.9,0,1.77,0,2.66,0
		c0-1.07,0-2.1,0-3.12c0-0.3,0.05-0.59,0.42-0.59c0.37,0,0.43,0.28,0.43,0.58c0,0.54,0,1.08,0,1.62c0,0.52,0,1.03,0,1.54
		c0.91,0,1.74,0,2.64,0c-0.3-0.65-0.57-1.25-0.86-1.85c-0.91-1.9-0.86-3.75,0.31-5.53c0.57-0.88,0.81-1.83,0.81-2.87
		c-0.01-4.23,0-8.45,0-12.68c0-1.45-0.19-2.86-0.72-4.22c-0.55-1.41-1.09-2.83-1.64-4.24c-1.2-3.08-1.26-6.17-0.03-9.25
		c0.54-1.36,1.17-2.69,1.7-4.05c0.46-1.17,0.68-2.4,0.64-3.69c-0.96,0-1.88,0-2.85,0c0,0.19,0,0.35,0,0.51c0,1.17,0,2.35,0,3.52
		c0,0.33,0.04,0.74-0.41,0.75c-0.49,0.01-0.44-0.43-0.44-0.77c0-0.91,0-1.83,0-2.74c0-0.42,0-0.84,0-1.27
		C29.93,12.8,29.07,12.8,28.19,12.8z"/>
	<path class="st1" d="M17.19,24.45c-0.05-0.01-0.09-0.01-0.14-0.02c0-0.41,0.03-0.82-0.02-1.22c-0.02-0.14-0.26-0.37-0.36-0.36
		c-0.16,0.03-0.33,0.21-0.42,0.37c-0.07,0.13-0.01,0.32-0.02,0.48c-0.08,1.04-0.12,2.08-0.26,3.11c-0.3,2.06-0.73,4.11-0.99,6.18
		c-0.43,3.45,0.01,6.87,0.52,10.27c0.38,2.53,0.82,5.05,0.85,7.62c0.03,2.3,0.11,4.6,0.16,6.9c0.01,0.3,0.05,0.59,0.42,0.59
		c0.38,0,0.4-0.3,0.41-0.6c0.03-5.47-0.29-10.91-1.24-16.31c-0.66-3.72-0.6-7.46,0.08-11.19C16.55,28.33,16.86,26.39,17.19,24.45z
		 M22.2,34.85c0.04,0,0.08-0.01,0.12-0.01c-0.25-1.84-0.42-3.69-0.75-5.51c-0.57-3.18-1.18-6.34-1.08-9.6
		c0-0.11,0.02-0.25-0.04-0.33c-0.09-0.12-0.24-0.28-0.35-0.28c-0.14,0.01-0.32,0.15-0.4,0.28c-0.07,0.11-0.03,0.28-0.04,0.43
		c-0.11,3.15,0.4,6.24,1.03,9.31c0.84,4.09,0.97,8.2,0.02,12.27c-0.65,2.82-1.18,5.64-1.06,8.55c0.01,0.34-0.1,0.82,0.44,0.81
		c0.49-0.02,0.39-0.48,0.39-0.81c-0.02-2.11,0.05-4.21,0.58-6.26C21.8,40.79,22.27,37.85,22.2,34.85z M24.86,36.21
		c0-3.95,0-7.89,0-11.84c0-0.15,0.04-0.32-0.02-0.43c-0.08-0.15-0.25-0.34-0.38-0.35c-0.13-0.01-0.31,0.17-0.41,0.31
		c-0.07,0.11-0.04,0.28-0.04,0.43c0,7.89,0,15.79,0,23.68c0,0.15-0.03,0.32,0.04,0.43c0.09,0.15,0.26,0.34,0.4,0.33
		c0.14,0,0.31-0.2,0.39-0.35c0.07-0.13,0.02-0.32,0.02-0.48C24.86,44.04,24.86,40.12,24.86,36.21z M18.59,41.31
		c-0.08,0.01-0.16,0.02-0.24,0.02c-0.14-0.3-0.33-0.59-0.42-0.9c-0.61-2.15-0.75-4.34-0.26-6.53c0.33-1.47,0.77-2.92,1.16-4.39
		c0.08-0.31,0.1-0.63-0.28-0.71c-0.39-0.09-0.47,0.23-0.55,0.53c-0.23,0.93-0.41,1.88-0.73,2.78c-0.91,2.61-0.92,5.24-0.33,7.9
		c0.11,0.5,0.35,0.98,0.56,1.45c0.18,0.39,0.48,0.69,0.93,0.69c0.48,0.01,0.76-0.32,0.97-0.71c0.1-0.19,0.2-0.37,0.27-0.57
		c0.71-1.98,0.73-4.03,0.63-6.09c-0.02-0.41-0.25-0.7-0.67-0.8c-0.4-0.09-0.75,0.05-0.92,0.4c-0.26,0.52-0.45,1.07-0.64,1.61
		c-0.09,0.27-0.04,0.55,0.3,0.6c0.37,0.06,0.44-0.2,0.52-0.5c0.1-0.42,0.27-0.82,0.41-1.24c0.06,0.02,0.11,0.04,0.17,0.05
		C19.54,37.11,19.61,39.29,18.59,41.31z M24.86,17.82c0-0.88,0-1.76,0-2.64c0-0.32-0.03-0.62-0.44-0.61
		c-0.38,0.01-0.41,0.32-0.41,0.6c0,1.74,0,3.48,0,5.23c0,0.3,0.07,0.6,0.42,0.6c0.35,0,0.43-0.28,0.43-0.59
		C24.85,19.54,24.85,18.68,24.86,17.82z M17.36,16.53c0-0.94,0-1.89,0-2.83c0-0.3,0-0.64-0.41-0.65c-0.4,0-0.42,0.32-0.42,0.63
		c0,1.92,0,3.84,0,5.76c0,0.31,0,0.63,0.41,0.64c0.42,0.01,0.42-0.33,0.42-0.63C17.36,18.48,17.36,17.51,17.36,16.53z M24.01,54.76
		c0,0.75,0,1.5,0,2.24c0,0.3,0.06,0.6,0.41,0.6c0.39,0.01,0.44-0.3,0.44-0.63c0-1.5,0-2.99,0-4.49c0-0.31-0.03-0.63-0.43-0.62
		c-0.41,0.01-0.41,0.34-0.42,0.64C24,53.27,24.01,54.01,24.01,54.76z"/>
	<path d="M17.19,24.45c-0.33,1.94-0.65,3.88-1,5.82c-0.69,3.73-0.74,7.47-0.08,11.19c0.95,5.4,1.27,10.84,1.24,16.31
		c0,0.3-0.03,0.59-0.41,0.6c-0.37,0-0.42-0.28-0.42-0.59c-0.05-2.3-0.14-4.6-0.16-6.9c-0.03-2.57-0.47-5.09-0.85-7.62
		c-0.51-3.41-0.95-6.83-0.52-10.27c0.26-2.07,0.69-4.11,0.99-6.18c0.15-1.03,0.18-2.08,0.26-3.11c0.01-0.16-0.05-0.36,0.02-0.48
		c0.09-0.16,0.26-0.34,0.42-0.37c0.1-0.02,0.34,0.22,0.36,0.36c0.05,0.4,0.02,0.81,0.02,1.22C17.1,24.44,17.15,24.44,17.19,24.45z"
		/>
	<path d="M22.2,34.85c0.07,3.01-0.4,5.94-1.14,8.84c-0.52,2.05-0.59,4.16-0.58,6.26c0,0.33,0.1,0.79-0.39,0.81
		c-0.54,0.02-0.42-0.46-0.44-0.81c-0.12-2.91,0.4-5.73,1.06-8.55c0.94-4.08,0.81-8.18-0.02-12.27c-0.63-3.07-1.14-6.15-1.03-9.31
		c0.01-0.15-0.03-0.32,0.04-0.43c0.09-0.13,0.26-0.27,0.4-0.28c0.11-0.01,0.26,0.15,0.35,0.28c0.06,0.08,0.04,0.22,0.04,0.33
		c-0.1,3.25,0.5,6.42,1.08,9.6c0.33,1.82,0.51,3.67,0.75,5.51C22.28,34.84,22.24,34.84,22.2,34.85z"/>
	<path d="M24.86,36.21c0,3.91,0,7.83,0,11.74c0,0.16,0.04,0.35-0.02,0.48c-0.08,0.15-0.25,0.34-0.39,0.35
		c-0.13,0-0.31-0.19-0.4-0.33c-0.07-0.11-0.04-0.28-0.04-0.43c0-7.89,0-15.79,0-23.68c0-0.15-0.03-0.32,0.04-0.43
		c0.09-0.14,0.27-0.32,0.41-0.31c0.14,0.01,0.3,0.2,0.38,0.35c0.06,0.11,0.02,0.29,0.02,0.43C24.86,28.32,24.86,32.26,24.86,36.21z"
		/>
	<path d="M18.59,41.31c1.01-2.02,0.95-4.2,0.89-6.38c-0.06-0.02-0.11-0.04-0.17-0.05c-0.14,0.41-0.31,0.82-0.41,1.24
		c-0.07,0.3-0.15,0.56-0.52,0.5c-0.34-0.06-0.4-0.33-0.3-0.6c0.19-0.55,0.38-1.1,0.64-1.61c0.17-0.34,0.52-0.49,0.92-0.4
		c0.42,0.09,0.65,0.39,0.67,0.8c0.1,2.06,0.08,4.11-0.63,6.09c-0.07,0.2-0.18,0.38-0.27,0.57c-0.21,0.39-0.49,0.72-0.97,0.71
		c-0.45-0.01-0.75-0.31-0.93-0.69c-0.21-0.47-0.45-0.95-0.56-1.45c-0.59-2.66-0.58-5.29,0.33-7.9c0.31-0.9,0.49-1.85,0.73-2.78
		c0.08-0.3,0.16-0.62,0.55-0.53c0.38,0.09,0.36,0.41,0.28,0.71c-0.39,1.46-0.83,2.91-1.16,4.39c-0.49,2.19-0.35,4.37,0.26,6.53
		c0.09,0.32,0.28,0.6,0.42,0.9C18.44,41.33,18.52,41.32,18.59,41.31z"/>
	<path d="M24.85,17.82c0,0.86,0,1.73,0,2.59c0,0.31-0.08,0.59-0.43,0.59c-0.36,0-0.42-0.3-0.42-0.6c0-1.74,0-3.48,0-5.23
		c0-0.29,0.03-0.59,0.41-0.6c0.41-0.01,0.44,0.3,0.44,0.61C24.85,16.06,24.86,16.94,24.85,17.82z"/>
	<path d="M17.36,16.53c0,0.98,0,1.95,0,2.93c0,0.3,0,0.64-0.42,0.63c-0.41-0.01-0.41-0.34-0.41-0.64c0-1.92,0-3.84,0-5.76
		c0-0.32,0.03-0.64,0.42-0.63c0.4,0,0.41,0.34,0.41,0.65C17.36,14.64,17.36,15.59,17.36,16.53z"/>
	<path d="M24.01,54.76c0-0.75,0-1.5,0-2.24c0-0.3,0.01-0.64,0.42-0.64c0.41-0.01,0.43,0.31,0.43,0.62c0,1.5,0,2.99,0,4.49
		c0,0.32-0.05,0.63-0.44,0.63c-0.35,0-0.41-0.31-0.41-0.6C24.01,56.26,24.01,55.51,24.01,54.76z"/>
	<path d="M49.86,20.84c0-1.89,0-3.78,0-5.68c0-0.16-0.04-0.36,0.03-0.48c0.09-0.16,0.27-0.34,0.43-0.36
		c0.11-0.01,0.28,0.21,0.37,0.37c0.06,0.1,0.02,0.25,0.02,0.39c0,3.16-0.01,6.33,0,9.49c0.01,2.94-0.44,5.81-1.02,8.68
		c-0.78,3.84-0.86,7.7-0.29,11.58c0.42,2.82,0.82,5.65,1.18,8.47c0.12,0.95,0.1,1.92,0.14,2.88c0.01,0.28-0.08,0.5-0.39,0.51
		c-0.32,0.01-0.41-0.2-0.43-0.48c-0.1-1.45-0.15-2.9-0.33-4.34c-0.3-2.44-0.68-4.87-1.03-7.31C48,41.04,48.05,37.52,48.69,34
		c0.29-1.59,0.65-3.17,0.83-4.77c0.2-1.78,0.26-3.57,0.34-5.36C49.9,22.87,49.86,21.85,49.86,20.84z"/>
	<path d="M50.16,38.76c0.17-0.95,0.41-2.31,0.65-3.66c0.02-0.09,0.06-0.19,0.1-0.27c0.21-0.39,0.43-0.8,0.96-0.78
		c0.5,0.01,0.79,0.37,0.89,0.78c0.26,1.04,0.53,2.09,0.63,3.15c0.15,1.53,0.07,3.07-0.27,4.57c-0.11,0.47-0.27,0.95-0.5,1.37
		c-0.41,0.72-1.16,0.73-1.53,0c-0.31-0.63-0.52-1.34-0.64-2.03C50.29,41,50.28,40.09,50.16,38.76z M51.85,34.96
		c-0.99,1.07-1.02,7.31-0.01,8.56C52.85,42.43,52.86,36.09,51.85,34.96z"/>
	<path d="M57.35,40.69c0-2.15,0-4.3,0-6.45c0-0.15-0.04-0.32,0.02-0.43c0.09-0.14,0.26-0.3,0.41-0.32c0.11-0.01,0.29,0.17,0.37,0.3
		c0.07,0.11,0.04,0.28,0.04,0.43c0,4.32,0,8.63,0,12.95c0,0.13,0.04,0.29-0.03,0.38c-0.1,0.16-0.27,0.38-0.41,0.37
		c-0.14,0-0.34-0.23-0.38-0.39c-0.07-0.26-0.02-0.55-0.02-0.83C57.35,44.7,57.35,42.69,57.35,40.69z"/>
	<path d="M58.2,22.06c0,2.14,0,4.27,0,6.41c0,0.16,0.03,0.35-0.04,0.48c-0.07,0.14-0.25,0.32-0.36,0.31
		c-0.15-0.01-0.32-0.17-0.42-0.31c-0.06-0.09-0.02-0.25-0.02-0.38c0-4.34,0-8.67,0-13.01c0-0.1-0.04-0.22,0.01-0.29
		c0.12-0.17,0.27-0.31,0.41-0.46c0.14,0.14,0.31,0.26,0.4,0.42c0.06,0.11,0.02,0.29,0.02,0.43C58.2,17.79,58.2,19.93,58.2,22.06z"/>
	<path d="M37.79,24.94c-0.13,0.56-0.23,1.1-0.39,1.62c-0.12,0.39-0.41,0.69-0.85,0.7c-0.44,0.01-0.72-0.29-0.87-0.67
		c-0.43-1.11-0.44-2.22,0.01-3.32c0.15-0.36,0.4-0.65,0.83-0.65c0.45-0.01,0.74,0.29,0.86,0.67C37.56,23.82,37.66,24.38,37.79,24.94
		z M36.58,23.51c-0.53,0.72-0.53,2.1-0.01,2.84C37.03,25.39,37,24.47,36.58,23.51z"/>
	<path d="M42.48,16.85c0,0.78,0,1.56,0,2.34c0,0.29-0.07,0.54-0.4,0.56c-0.34,0.01-0.43-0.24-0.44-0.53c0-1.58-0.01-3.16,0.02-4.74
		c0-0.17,0.23-0.45,0.4-0.49c0.32-0.06,0.43,0.21,0.43,0.51C42.48,15.29,42.48,16.07,42.48,16.85z"/>
	<path d="M42.48,23.35c0,0.42,0.04,0.85-0.02,1.27c-0.02,0.17-0.22,0.42-0.38,0.46c-0.29,0.08-0.44-0.17-0.44-0.45
		c-0.01-0.85-0.02-1.69,0.02-2.54c0.01-0.16,0.26-0.31,0.4-0.46c0.14,0.17,0.37,0.32,0.4,0.5C42.52,22.53,42.48,22.94,42.48,23.35z"
		/>
	<path d="M31.7,45.75c0,2.74,0,5.48,0,8.22c0,0.15,0.04,0.32-0.03,0.43c-0.09,0.15-0.26,0.34-0.39,0.34c-0.14,0-0.31-0.19-0.4-0.34
		c-0.07-0.11-0.03-0.29-0.03-0.43c0-5.49,0-10.99,0-16.48c0-0.11-0.04-0.26,0.02-0.34c0.12-0.17,0.29-0.3,0.43-0.44
		c0.13,0.14,0.3,0.27,0.39,0.43c0.06,0.11,0.02,0.29,0.02,0.43C31.7,40.31,31.7,43.03,31.7,45.75z"/>
	<path d="M31.7,33.07c0,0.34,0.01,0.68,0,1.03c-0.01,0.28-0.14,0.52-0.44,0.45c-0.16-0.04-0.38-0.28-0.39-0.45
		c-0.04-0.7-0.05-1.4,0-2.1c0.01-0.18,0.26-0.33,0.4-0.5c0.14,0.16,0.37,0.31,0.41,0.5C31.75,32.34,31.7,32.71,31.7,33.07z"/>
</g>
<rect x="12.41" y="12.41" class="st0" width="49.19" height="49.19"/>
<line class="st0" x1="53.09" y1="21.93" x2="22.87" y2="52.15"/>
<line class="st0" x1="44.37" y1="23.57" x2="24.52" y2="43.43"/>
<line class="st0" x1="51.45" y1="30.64" x2="31.59" y2="50.5"/>
</svg>
