<?xml version="1.0" encoding="utf-8"?>
<!-- Generator: Adobe Illustrator 26.3.1, SVG Export Plug-In . SVG Version: 6.00 Build 0)  -->
<svg version="1.1" id="Layer_1" xmlns="http://www.w3.org/2000/svg" xmlns:xlink="http://www.w3.org/1999/xlink" x="0px" y="0px"
	 viewBox="0 0 74 74" style="enable-background:new 0 0 74 74;" xml:space="preserve">
<g>
	<path d="M45.27,53.49c-0.15,0-0.29,0-0.44,0c-0.89-0.76-1.79-1.53-2.69-2.3c-0.22,0.2-0.43,0.39-0.64,0.57
		c-0.68,0.58-1.36,1.15-2.04,1.73c-0.15,0-0.29,0-0.44,0c-0.9-0.76-1.79-1.52-2.7-2.3c-0.17,0.16-0.33,0.3-0.5,0.45
		c-0.72,0.62-1.44,1.23-2.16,1.85c-0.15,0-0.29,0-0.44,0c-0.9-0.76-1.8-1.52-2.69-2.27c-0.9,0.76-1.78,1.52-2.67,2.27
		c-0.15,0-0.29,0-0.44,0c-0.9-0.76-1.8-1.52-2.7-2.27c-0.89,0.76-1.77,1.52-2.66,2.27c-0.15,0-0.29,0-0.44,0
		c-0.24-0.17-0.49-0.33-0.7-0.52c-0.78-0.69-1.53-1.41-2.32-2.09c-0.41-0.35-0.6-0.76-0.58-1.3c0.03-0.83,0.01-1.66,0.01-2.54
		c-0.85,0-1.65,0.01-2.45,0c-0.74-0.01-1.07-0.35-1.07-1.09c0-0.98,0-1.96,0-2.95c0-0.98,0.26-1.24,1.26-1.24c0.74,0,1.49,0,2.23,0
		c0-6.92,0-13.78,0-20.67c-0.81,0-1.59,0.01-2.36,0c-0.8-0.01-1.12-0.33-1.12-1.12c0-0.98,0-1.96,0-2.95c0-0.93,0.27-1.2,1.21-1.21
		c0.76,0,1.52,0,2.32,0c0-0.21,0-0.37,0-0.52c0-1.03,0.01-2.05,0-3.08c0-0.42,0.14-0.76,0.46-1.04c0.85-0.76,1.69-1.53,2.54-2.3
		c0.62-0.56,0.98-0.55,1.6,0c0.69,0.63,1.39,1.25,2.1,1.89c0.14-0.12,0.26-0.22,0.38-0.33c0.57-0.51,1.13-1.03,1.69-1.53
		c0.67-0.6,1.01-0.6,1.66-0.01c0.37,0.33,0.74,0.67,1.11,1c0.32,0.29,0.64,0.58,0.97,0.87c0.7-0.63,1.36-1.23,2.03-1.83
		c0.73-0.65,1.03-0.65,1.76,0.01c0.67,0.6,1.34,1.21,2.02,1.82c0.71-0.64,1.38-1.25,2.06-1.86c0.68-0.62,1.01-0.62,1.7,0
		c0.68,0.61,1.36,1.23,2.06,1.86c0.74-0.67,1.44-1.3,2.15-1.94c0.56-0.5,0.95-0.51,1.5-0.01c0.77,0.68,1.5,1.41,2.29,2.05
		c0.59,0.48,0.83,1.04,0.78,1.79c-0.05,0.76-0.01,1.52-0.01,2.29c0,0.27,0,0.55,0,0.82c0.65,0,1.23,0,1.84,0c0-0.23,0-0.42,0-0.61
		c0.01-0.79,0.3-1.09,1.09-1.1c1.04-0.01,2.08-0.01,3.12,0c0.74,0.01,1.05,0.33,1.07,1.08c0,0.21,0,0.43,0,0.67
		c0.83,0,1.59,0.02,2.35-0.01c0.54-0.02,0.94,0.15,1.18,0.65c0,1.32,0,2.64,0,3.96c-0.22,0.51-0.62,0.7-1.16,0.68
		c-0.32-0.01-0.64,0-0.97,0c-0.46,0-0.92,0-1.4,0c0,0.32,0.01,0.57,0,0.82c-0.04,0.53-0.3,0.88-0.79,0.89
		c-1.23,0.04-2.46,0.04-3.69,0c-0.5-0.01-0.77-0.37-0.79-0.89c-0.01-0.26,0-0.52,0-0.79c-0.64,0-1.23,0-1.82,0
		c0,6.89,0,13.74,0,20.6c0.61,0,1.19,0,1.82,0c0-0.23,0-0.43,0-0.63c0.01-0.79,0.3-1.09,1.09-1.1c1.04-0.01,2.08-0.01,3.12,0
		c0.74,0.01,1.05,0.33,1.07,1.08c0,0.21,0,0.43,0,0.67c0.83,0,1.59,0.02,2.35-0.01c0.54-0.02,0.94,0.15,1.18,0.65
		c0,1.32,0,2.64,0,3.96c-0.22,0.51-0.62,0.7-1.16,0.68c-0.32-0.01-0.64,0-0.97,0c-0.46,0-0.92,0-1.41,0c0,0.3,0.01,0.54,0,0.77
		c-0.03,0.6-0.32,0.95-0.91,0.97c-1.15,0.03-2.31,0.03-3.47,0c-0.59-0.02-0.87-0.37-0.89-0.98c-0.01-0.24,0-0.48,0-0.73
		c-0.65,0-1.23,0-1.84,0c0,0.89-0.01,1.75,0,2.61c0.01,0.46-0.14,0.81-0.49,1.12c-0.7,0.62-1.38,1.26-2.09,1.88
		C45.97,52.97,45.61,53.22,45.27,53.49z M27.63,10.53c-0.57,0.52-1.09,1.02-1.64,1.47c-0.31,0.25-0.39,0.52-0.39,0.9
		c0.01,3.4,0.01,6.8,0.01,10.2c0,8.68,0,17.35,0,26.03c0,0.18,0,0.43,0.1,0.53c0.62,0.6,1.27,1.16,1.92,1.75
		c0.55-0.5,1.06-0.99,1.6-1.44c0.31-0.26,0.42-0.53,0.42-0.94c-0.01-12.05-0.01-24.1-0.01-36.14c0-0.12,0.02-0.24-0.01-0.35
		c-0.03-0.12-0.07-0.26-0.15-0.34C28.88,11.66,28.27,11.11,27.63,10.53z M39.25,51.43c0.56-0.51,1.06-1,1.61-1.44
		c0.34-0.27,0.43-0.57,0.43-0.98c-0.01-3.47-0.01-6.95-0.01-10.42c0-8.59,0-17.18,0-25.77c0-0.18,0-0.43-0.1-0.53
		c-0.62-0.6-1.27-1.16-1.92-1.75c-0.55,0.5-1.06,0.99-1.6,1.44c-0.31,0.26-0.42,0.53-0.42,0.94c0.01,12.05,0.01,24.1,0.01,36.14
		c0,0.12-0.02,0.24,0.01,0.35c0.03,0.12,0.07,0.26,0.15,0.34C38,50.3,38.61,50.84,39.25,51.43z M45.06,51.42
		c0.57-0.52,1.11-1.03,1.68-1.51c0.27-0.23,0.37-0.47,0.37-0.82C47.1,37.02,47.1,24.94,47.1,12.87c0-0.1,0.01-0.21,0-0.31
		c-0.02-0.09-0.04-0.21-0.1-0.27c-0.63-0.58-1.28-1.16-1.94-1.75c-0.55,0.5-1.07,0.99-1.62,1.45c-0.3,0.25-0.4,0.51-0.4,0.9
		c0.01,12.06,0.01,24.12,0.01,36.18c0,0.12-0.02,0.24,0.01,0.35c0.02,0.11,0.06,0.23,0.13,0.3C43.8,50.29,44.42,50.84,45.06,51.42z
		 M21.82,51.42c0.57-0.52,1.09-1.01,1.64-1.47c0.29-0.24,0.38-0.5,0.38-0.87c-0.01-9.82-0.01-19.63-0.01-29.45c0-2.3,0-4.6,0-6.9
		c0-0.15,0-0.36-0.1-0.45c-0.62-0.59-1.26-1.16-1.91-1.75c-0.59,0.53-1.13,1.05-1.7,1.53c-0.26,0.22-0.34,0.46-0.34,0.79
		c0.01,8.03,0.01,16.06,0.01,24.09c0,4.07,0,8.15,0.01,12.22c0,0.18,0.02,0.42,0.12,0.52C20.51,50.27,21.15,50.83,21.82,51.42z
		 M33.44,10.53c-0.56,0.5-1.06,0.99-1.6,1.44c-0.31,0.26-0.42,0.53-0.42,0.94c0.01,12.05,0.01,24.09,0.01,36.14
		c0,0.12-0.01,0.24,0,0.35c0.01,0.1,0.03,0.22,0.09,0.28c0.63,0.58,1.27,1.16,1.92,1.75c0.56-0.5,1.06-0.99,1.6-1.44
		c0.31-0.26,0.42-0.53,0.42-0.94C35.45,37,35.46,24.95,35.46,12.91c0-0.12,0.02-0.24-0.01-0.35c-0.03-0.12-0.07-0.26-0.16-0.34
		C34.69,11.66,34.08,11.11,33.44,10.53z M52.48,21.06c0.58,0,1.14,0,1.71,0c0-1.75,0-3.47,0-5.19c-0.59,0-1.15,0-1.71,0
		C52.48,17.62,52.48,19.33,52.48,21.06z M54.2,47.01c0-1.75,0-3.47,0-5.19c-0.59,0-1.15,0-1.71,0c0,1.75,0,3.46,0,5.19
		C53.06,47.01,53.63,47.01,54.2,47.01z M48.88,19.31c0.63,0,1.2,0,1.79,0c0-0.59,0-1.14,0-1.7c-0.61,0-1.19,0-1.79,0
		C48.88,18.19,48.88,18.74,48.88,19.31z M50.68,43.56c-0.61,0-1.2,0-1.8,0c0,0.58,0,1.13,0,1.69c0.61,0,1.2,0,1.8,0
		C50.68,44.67,50.68,44.13,50.68,43.56z M17.99,19.32c0-0.58,0-1.14,0-1.7c-0.59,0-1.15,0-1.72,0c0,0.58,0,1.13,0,1.7
		C16.85,19.32,17.41,19.32,17.99,19.32z M56,19.32c0.58,0,1.14,0,1.72,0c0-0.58,0-1.14,0-1.7c-0.59,0-1.15,0-1.72,0
		C56,18.19,56,18.74,56,19.32z M17.99,45.27c0-0.59,0-1.14,0-1.71c-0.58,0-1.14,0-1.71,0c0,0.58,0,1.14,0,1.71
		C16.86,45.27,17.41,45.27,17.99,45.27z M57.73,43.56c-0.6,0-1.16,0-1.72,0c0,0.58,0,1.13,0,1.7c0.58,0,1.14,0,1.72,0
		C57.73,44.69,57.73,44.14,57.73,43.56z"/>
</g>
<g>
	<path d="M35.93,63.1v3.29h-1.82v-8.57h2.5c1.16,0,2.03,0.21,2.58,0.64s0.84,1.07,0.84,1.93c0,0.5-0.14,0.95-0.42,1.34
		s-0.67,0.7-1.18,0.92c1.29,1.93,2.13,3.17,2.52,3.73h-2.02L36.9,63.1H35.93z M35.93,61.62h0.59c0.57,0,1-0.1,1.27-0.29
		s0.41-0.49,0.41-0.9c0-0.41-0.14-0.7-0.42-0.87s-0.71-0.26-1.3-0.26h-0.55V61.62z"/>
</g>
</svg>
