<?xml version="1.0" encoding="utf-8"?>
<!-- Generator: Adobe Illustrator 26.3.1, SVG Export Plug-In . SVG Version: 6.00 Build 0)  -->
<svg version="1.1" id="Layer_1" xmlns="http://www.w3.org/2000/svg" xmlns:xlink="http://www.w3.org/1999/xlink" x="0px" y="0px"
	 viewBox="0 0 74 74" style="enable-background:new 0 0 74 74;" xml:space="preserve">
<style type="text/css">
	.st0{enable-background:new    ;}
</style>
<g>
	<g class="st0">
		<path d="M33.4,63.32V52.62h2.27v8.83h4.34v1.88H33.4z"/>
	</g>
</g>
<g>
	<path d="M61.5,2.8c-6.4,0-12.7,0-19.2,0c0,1.8,0,3.5,0,5.3c-3.5,0-7,0-10.6,0c0-1.8,0-3.5,0-5.3c-6.4,0-12.8,0-19.1,0
		c0-1,0-1.9,0-2.9c16.3,0,32.6,0,48.9,0C61.5,0.9,61.5,1.8,61.5,2.8z"/>
	<path d="M35.5,11c0,1.8,0,3.6,0,5.4c1,0,1.9,0,2.9,0c0-1.8,0-3.6,0-5.4c0.2,0,0.3,0,0.5,0c1,0,2,0.1,3,0c0.8-0.1,1.4,0.3,1.9,0.9
		c2.4,2.6,3,5.6,2.3,9c-0.6,3.1-1.8,6-3.6,8.6c-0.8,1.2-1.9,2.2-3.2,2.9c-1.8,0.9-3.6,0.7-5.2-0.4c-1.8-1.2-2.9-2.9-3.9-4.7
		c-1.3-2.5-2.2-5.1-2.5-8c-0.3-3.2,0.8-5.9,3.1-8c0.1-0.1,0.3-0.2,0.4-0.2C32.7,11,34.1,11,35.5,11z"/>
	<path d="M35.6,37.3c1,0,1.9,0,2.8,0c0,2.1,0,4.1,0,6.2c-0.9,0-1.8,0-2.8,0C35.6,41.5,35.6,39.4,35.6,37.3z"/>
	<path d="M25.2,32.3c0.7,0.6,1.4,1.2,2.2,1.9c-1.4,1.6-2.7,3.2-4.1,4.8c-0.7-0.6-1.4-1.2-2.2-1.9C22.4,35.5,23.8,33.9,25.2,32.3z"/>
	<path d="M24,10.8c-0.5,0.8-1,1.6-1.6,2.4c-1.8-1.1-3.5-2.3-5.3-3.4c0.5-0.8,1-1.6,1.6-2.4C20.5,8.5,22.3,9.6,24,10.8z"/>
	<path d="M53,24.6c0.1-1,0.3-1.9,0.4-2.8c2.1,0.3,4.1,0.6,6.2,0.9c-0.1,1-0.3,1.9-0.4,2.8C57.1,25.2,55.1,24.9,53,24.6z"/>
	<path d="M50.8,39c-1.4-1.6-2.7-3.2-4.1-4.7c0.7-0.6,1.4-1.2,2.2-1.9c1.4,1.6,2.7,3.2,4.1,4.8C52.2,37.7,51.5,38.3,50.8,39z"/>
	<path d="M55.2,7.4c0.5,0.8,1,1.6,1.6,2.4c-1.8,1.1-3.5,2.3-5.3,3.4c-0.5-0.8-1-1.6-1.6-2.4C51.7,9.6,53.4,8.5,55.2,7.4z"/>
	<path d="M14.7,25.5c-0.1-1-0.3-1.9-0.4-2.8c2.1-0.3,4.1-0.6,6.2-0.9c0.1,1,0.3,1.9,0.4,2.8C18.9,24.9,16.8,25.2,14.7,25.5z"/>
</g>
</svg>
