<?xml version="1.0" encoding="utf-8"?>
<!-- Generator: Adobe Illustrator 26.3.1, SVG Export Plug-In . SVG Version: 6.00 Build 0)  -->
<svg version="1.1" id="Layer_1" xmlns="http://www.w3.org/2000/svg" xmlns:xlink="http://www.w3.org/1999/xlink" x="0px" y="0px"
	 viewBox="0 0 74 74" style="enable-background:new 0 0 74 74;" xml:space="preserve">
<style type="text/css">
	.st0{fill:none;stroke:#000000;stroke-width:1.5;stroke-miterlimit:10;}
</style>
<rect x="18.56" y="10.51" class="st0" width="36.88" height="36.88"/>
<g>
	<path d="M35.93,61.37v3.29h-1.82v-8.57h2.5c1.16,0,2.03,0.21,2.58,0.64s0.84,1.07,0.84,1.93c0,0.5-0.14,0.95-0.42,1.34
		s-0.67,0.7-1.18,0.92c1.29,1.93,2.13,3.17,2.52,3.73h-2.02l-2.04-3.29H35.93z M35.93,59.89h0.59c0.57,0,1-0.1,1.27-0.29
		s0.41-0.49,0.41-0.9c0-0.41-0.14-0.7-0.42-0.87s-0.71-0.26-1.3-0.26h-0.55V59.89z"/>
</g>
<line class="st0" x1="18.56" y1="47.4" x2="55.29" y2="10.66"/>
<line class="st0" x1="19" y1="10.59" x2="55.73" y2="47.32"/>
</svg>
