<svg id="Layer_1" data-name="Layer 1" xmlns="http://www.w3.org/2000/svg" viewBox="0 0 74 74"><defs><style>.cls-1{fill:none;stroke:#000;stroke-miterlimit:10;stroke-width:2px;}.cls-2{isolation:isolate;}</style></defs><rect class="cls-1" x="8.74" y="24" width="56.52" height="28.26"/><circle class="cls-1" cx="23.98" cy="38.13" r="9.92"/><circle class="cls-1" cx="49.32" cy="38.13" r="9.92"/><circle cx="20.75" cy="38.13" r="1.7"/><circle cx="27.21" cy="38.13" r="1.7"/><circle cx="46.09" cy="38.13" r="1.7"/><circle cx="52.55" cy="38.13" r="1.7"/><g class="cls-2"><path d="M36.5,61.42v3.29H34.69V56.14h2.49a4.31,4.31,0,0,1,2.59.64,2.52,2.52,0,0,1,.42,3.27A2.78,2.78,0,0,1,39,61c1.29,1.92,2.13,3.17,2.52,3.73h-2l-2.05-3.29Zm0-1.47h.59a2.22,2.22,0,0,0,1.27-.29,1,1,0,0,0,.41-.9.94.94,0,0,0-.42-.87,2.54,2.54,0,0,0-1.29-.26H36.5Z"/></g></svg>