<?xml version="1.0" encoding="utf-8"?>
<!-- Generator: Adobe Illustrator 26.3.1, SVG Export Plug-In . SVG Version: 6.00 Build 0)  -->
<svg version="1.1" id="Layer_1" xmlns="http://www.w3.org/2000/svg" xmlns:xlink="http://www.w3.org/1999/xlink" x="0px" y="0px"
	 viewBox="0 0 74 74" style="enable-background:new 0 0 74 74;" xml:space="preserve">
<style type="text/css">
	.st0{fill:none;stroke:#000000;stroke-width:3;stroke-miterlimit:10;}
</style>
<g>
	<circle class="st0" cx="37" cy="28.42" r="10.48"/>
	<g>
		<path d="M51.72,11.71c0.67,0.67,1.32,1.32,1.99,1.99c-1.47,1.47-2.93,2.93-4.41,4.41c-0.65-0.65-1.31-1.31-1.99-1.99
			C48.78,14.65,50.23,13.2,51.72,11.71z"/>
		<path d="M24.7,38.73c0.67,0.67,1.32,1.32,1.99,1.99c-1.47,1.47-2.93,2.93-4.41,4.41c-0.65-0.65-1.31-1.31-1.99-1.99
			C21.75,41.68,23.21,40.22,24.7,38.73z"/>
	</g>
	<g>
		<path d="M59.23,27.01c0,0.95,0,1.86,0,2.81c-2.08,0-4.14,0-6.24,0c0-0.92,0-1.85,0-2.81C55.06,27.01,57.12,27.01,59.23,27.01z"/>
		<path d="M21.01,27.01c0,0.95,0,1.86,0,2.81c-2.08,0-4.14,0-6.24,0c0-0.92,0-1.85,0-2.81C16.84,27.01,18.9,27.01,21.01,27.01z"/>
	</g>
	<g>
		<path d="M38.4,50.64c-0.95,0-1.86,0-2.81,0c0-2.08,0-4.14,0-6.24c0.92,0,1.85,0,2.81,0C38.4,46.48,38.4,48.54,38.4,50.64z"/>
		<path d="M38.4,12.43c-0.95,0-1.86,0-2.81,0c0-2.08,0-4.14,0-6.24c0.92,0,1.85,0,2.81,0C38.4,8.26,38.4,10.32,38.4,12.43z"/>
	</g>
	<g>
		<path d="M53.71,43.14c-0.67,0.67-1.32,1.32-1.99,1.99c-1.47-1.47-2.93-2.93-4.41-4.41c0.65-0.65,1.31-1.31,1.99-1.99
			C50.76,40.19,52.22,41.65,53.71,43.14z"/>
		<path d="M26.69,16.12c-0.67,0.67-1.32,1.32-1.99,1.99c-1.47-1.47-2.93-2.93-4.41-4.41c0.65-0.65,1.31-1.31,1.99-1.99
			C23.74,13.17,25.2,14.63,26.69,16.12z"/>
	</g>
</g>
<g>
	<path d="M40.39,58.58c0,0.67-0.2,1.24-0.61,1.71s-0.97,0.79-1.71,0.97v0.04c0.86,0.11,1.52,0.37,1.96,0.79
		c0.44,0.42,0.67,0.98,0.67,1.69c0,1.03-0.37,1.83-1.12,2.41c-0.75,0.57-1.81,0.86-3.2,0.86c-1.16,0-2.19-0.19-3.09-0.58v-1.93
		c0.42,0.21,0.87,0.38,1.37,0.51s0.99,0.2,1.48,0.2c0.75,0,1.3-0.13,1.66-0.38c0.36-0.25,0.53-0.66,0.53-1.22
		c0-0.5-0.21-0.86-0.62-1.07s-1.06-0.32-1.96-0.32h-0.81v-1.74h0.83c0.83,0,1.44-0.11,1.82-0.33c0.38-0.22,0.58-0.59,0.58-1.12
		c0-0.81-0.51-1.22-1.52-1.22c-0.35,0-0.71,0.06-1.07,0.18c-0.36,0.12-0.77,0.32-1.21,0.61l-1.05-1.56c0.98-0.7,2.14-1.05,3.49-1.05
		c1.11,0,1.98,0.22,2.63,0.67C40.07,57.15,40.39,57.77,40.39,58.58z"/>
</g>
</svg>
