<?xml version="1.0" encoding="utf-8"?>
<!-- Generator: Adobe Illustrator 26.3.1, SVG Export Plug-In . SVG Version: 6.00 Build 0)  -->
<svg version="1.1" id="Layer_1" xmlns="http://www.w3.org/2000/svg" xmlns:xlink="http://www.w3.org/1999/xlink" x="0px" y="0px"
	 viewBox="0 0 74 74" style="enable-background:new 0 0 74 74;" xml:space="preserve">
<style type="text/css">
	.st0{fill:none;stroke:#000000;stroke-width:3;stroke-miterlimit:10;}
</style>
<g>
	<circle class="st0" cx="37" cy="28.45" r="10.48"/>
	<g>
		<path d="M51.72,11.74c0.67,0.67,1.32,1.32,1.99,1.99c-1.47,1.47-2.93,2.93-4.41,4.41c-0.65-0.65-1.31-1.31-1.99-1.99
			C48.78,14.69,50.23,13.24,51.72,11.74z"/>
		<path d="M24.7,38.77c0.67,0.67,1.32,1.32,1.99,1.99c-1.47,1.47-2.93,2.93-4.41,4.41c-0.65-0.65-1.31-1.31-1.99-1.99
			C21.75,41.72,23.21,40.26,24.7,38.77z"/>
	</g>
	<g>
		<path d="M59.23,27.05c0,0.95,0,1.86,0,2.81c-2.08,0-4.14,0-6.24,0c0-0.92,0-1.85,0-2.81C55.06,27.05,57.12,27.05,59.23,27.05z"/>
		<path d="M21.01,27.05c0,0.95,0,1.86,0,2.81c-2.08,0-4.14,0-6.24,0c0-0.92,0-1.85,0-2.81C16.84,27.05,18.9,27.05,21.01,27.05z"/>
	</g>
	<g>
		<path d="M38.4,50.68c-0.95,0-1.86,0-2.81,0c0-2.08,0-4.14,0-6.24c0.92,0,1.85,0,2.81,0C38.4,46.51,38.4,48.57,38.4,50.68z"/>
		<path d="M38.4,12.46c-0.95,0-1.86,0-2.81,0c0-2.08,0-4.14,0-6.24c0.92,0,1.85,0,2.81,0C38.4,8.3,38.4,10.36,38.4,12.46z"/>
	</g>
	<g>
		<path d="M53.71,43.18c-0.67,0.67-1.32,1.32-1.99,1.99c-1.47-1.47-2.93-2.93-4.41-4.41c0.65-0.65,1.31-1.31,1.99-1.99
			C50.76,40.23,52.22,41.69,53.71,43.18z"/>
		<path d="M26.69,16.15c-0.67,0.67-1.32,1.32-1.99,1.99c-1.47-1.47-2.93-2.93-4.41-4.41c0.65-0.65,1.31-1.31,1.99-1.99
			C23.74,13.21,25.2,14.66,26.69,16.15z"/>
	</g>
</g>
<g>
	<path d="M38.92,66.89h-2.26v-6.2l0.02-1.02l0.04-1.11c-0.38,0.38-0.64,0.62-0.78,0.74l-1.23,0.99l-1.09-1.36l3.45-2.75h1.86V66.89z
		"/>
</g>
</svg>
