<?xml version="1.0" encoding="utf-8"?>
<!-- Generator: Adobe Illustrator 26.3.1, SVG Export Plug-In . SVG Version: 6.00 Build 0)  -->
<svg version="1.1" id="Layer_1" xmlns="http://www.w3.org/2000/svg" xmlns:xlink="http://www.w3.org/1999/xlink" x="0px" y="0px"
	 viewBox="0 0 74 74" style="enable-background:new 0 0 74 74;" xml:space="preserve">
<style type="text/css">
	.st0{fill:none;stroke:#000000;stroke-width:3;stroke-miterlimit:10;}
</style>
<g>
	<circle class="st0" cx="37" cy="28.42" r="10.48"/>
	<g>
		<path d="M51.72,11.71c0.67,0.67,1.32,1.32,1.99,1.99c-1.47,1.47-2.93,2.93-4.41,4.41c-0.65-0.65-1.31-1.31-1.99-1.99
			C48.78,14.65,50.23,13.2,51.72,11.71z"/>
		<path d="M24.7,38.73c0.67,0.67,1.32,1.32,1.99,1.99c-1.47,1.47-2.93,2.93-4.41,4.41c-0.65-0.65-1.31-1.31-1.99-1.99
			C21.75,41.68,23.21,40.22,24.7,38.73z"/>
	</g>
	<g>
		<path d="M59.23,27.01c0,0.95,0,1.86,0,2.81c-2.08,0-4.14,0-6.24,0c0-0.92,0-1.85,0-2.81C55.06,27.01,57.12,27.01,59.23,27.01z"/>
		<path d="M21.01,27.01c0,0.95,0,1.86,0,2.81c-2.08,0-4.14,0-6.24,0c0-0.92,0-1.85,0-2.81C16.84,27.01,18.9,27.01,21.01,27.01z"/>
	</g>
	<g>
		<path d="M38.4,50.64c-0.95,0-1.86,0-2.81,0c0-2.08,0-4.14,0-6.24c0.92,0,1.85,0,2.81,0C38.4,46.48,38.4,48.54,38.4,50.64z"/>
		<path d="M38.4,12.43c-0.95,0-1.86,0-2.81,0c0-2.08,0-4.14,0-6.24c0.92,0,1.85,0,2.81,0C38.4,8.26,38.4,10.32,38.4,12.43z"/>
	</g>
	<g>
		<path d="M53.71,43.14c-0.67,0.67-1.32,1.32-1.99,1.99c-1.47-1.47-2.93-2.93-4.41-4.41c0.65-0.65,1.31-1.31,1.99-1.99
			C50.76,40.19,52.22,41.65,53.71,43.14z"/>
		<path d="M26.69,16.12c-0.67,0.67-1.32,1.32-1.99,1.99c-1.47-1.47-2.93-2.93-4.41-4.41c0.65-0.65,1.31-1.31,1.99-1.99
			C23.74,13.17,25.2,14.63,26.69,16.12z"/>
	</g>
</g>
<g>
	<path d="M41.05,64.67h-1.29v2.22h-2.21v-2.22h-4.57v-1.57l4.69-6.91h2.09v6.73h1.29V64.67z M37.55,62.91v-1.82
		c0-0.3,0.01-0.74,0.04-1.32s0.04-0.91,0.06-1h-0.06c-0.18,0.4-0.4,0.79-0.65,1.17l-1.96,2.97H37.55z"/>
</g>
</svg>
