<?xml version="1.0" encoding="utf-8"?>
<!-- Generator: Adobe Illustrator 26.3.1, SVG Export Plug-In . SVG Version: 6.00 Build 0)  -->
<svg version="1.1" id="Layer_1" xmlns="http://www.w3.org/2000/svg" xmlns:xlink="http://www.w3.org/1999/xlink" x="0px" y="0px"
	 viewBox="0 0 74 74" style="enable-background:new 0 0 74 74;" xml:space="preserve">
<g>
	<path d="M61.48,43.99c-2.9,0-5.79,0-8.74,0c0-0.83,0.01-1.63,0-2.42c-0.02-1.38-0.73-2.38-1.92-2.7c-0.32-0.09-0.66-0.12-0.99-0.12
		c-1.83-0.01-3.67,0-5.5-0.01c-0.52,0-0.9,0.18-1.24,0.58c-3.29,3.91-8.9,3.91-12.2-0.01c-0.35-0.42-0.76-0.58-1.29-0.57
		c-4.32,0.01-8.64,0.01-12.96,0.01c-0.19,0-0.38,0-0.6,0c0-2.91,0-5.79,0-8.73c0.18,0,0.37,0,0.55,0c4.32,0,8.64-0.01,12.96,0.01
		c0.59,0,1.02-0.18,1.4-0.65c3.09-3.8,8.97-3.8,12.08-0.01c0.38,0.46,0.79,0.66,1.39,0.66c2.96-0.02,5.93,0.04,8.89-0.02
		c4.25-0.08,7.62,3.03,8.09,6.84c0.01,0.06,0.05,0.11,0.08,0.17C61.48,39.33,61.48,41.66,61.48,43.99z"/>
	<path d="M61.48,55.85c-0.23,0.88-0.59,1.67-1.33,2.25c-1.19,0.94-2.96,1-4.18,0.12c-1.3-0.94-1.85-2.47-1.2-3.91
		c0.61-1.34,1.41-2.59,2.15-3.87c0.3-0.52,0.69-0.98,1.07-1.52c1.36,1.98,2.81,3.85,3.49,6.16C61.48,55.34,61.48,55.6,61.48,55.85z"
		/>
	<path d="M37.86,24.76c-0.61,0-1.15,0-1.74,0c0-0.19,0-0.36,0-0.53c0-1.48,0-2.96,0-4.44c0-0.83-0.32-1.14-1.16-1.15
		c-1.05,0-2.1,0.03-3.15-0.01c-0.67-0.03-1.12,0.19-1.53,0.74c-1.03,1.39-3.13,1.34-4.15-0.06c-0.85-1.17-0.59-2.81,0.58-3.65
		c1.18-0.85,2.82-0.61,3.64,0.57c0.34,0.49,0.73,0.68,1.31,0.68c3.55-0.02,7.11-0.02,10.66,0c0.58,0,0.98-0.17,1.32-0.67
		c0.64-0.95,1.84-1.31,2.92-0.96c1.09,0.36,1.82,1.36,1.81,2.49c0,1.1-0.74,2.12-1.78,2.47c-1.08,0.36-2.28,0.02-2.93-0.93
		c-0.35-0.51-0.75-0.71-1.35-0.69c-1.08,0.04-2.17,0.01-3.25,0.01c-0.88,0-1.19,0.3-1.19,1.17c0,1.47,0,2.93,0,4.4
		C37.86,24.38,37.86,24.56,37.86,24.76z"/>
	<path d="M12.52,45.58c0-7.5,0-14.92,0-22.35c0.89,0.23,1.61,1.13,1.7,2.1c0.01,0.14,0.02,0.29,0.02,0.43c0,5.74,0,11.48,0,17.21
		c0,1.04-0.41,1.85-1.29,2.4C12.84,45.46,12.7,45.5,12.52,45.58z"/>
</g>
<g>
	<path d="M35.67,61.7v4.11H33.4V55.1h3.12c1.46,0,2.53,0.26,3.23,0.79c0.7,0.53,1.05,1.33,1.05,2.41c0,0.63-0.17,1.19-0.52,1.68
		c-0.35,0.49-0.84,0.88-1.47,1.15c1.61,2.41,2.66,3.96,3.15,4.67h-2.52l-2.56-4.11H35.67z M35.67,59.86h0.73
		c0.72,0,1.25-0.12,1.59-0.36c0.34-0.24,0.51-0.62,0.51-1.13c0-0.51-0.17-0.87-0.52-1.08c-0.35-0.21-0.89-0.32-1.62-0.32h-0.69
		V59.86z"/>
</g>
</svg>
